# xmcd
#
# Track frame offsets: 
#        182
#        18725
#        45230
#        70077
#
# Disc length: 1254 seconds
#
# Revision: 0
# Processed by: cddbd v1.5.2PL0 Copyright (c) Steve Scherf et al.
# Submitted via: ExactAudioCopy v1.3
#
DISCID=2a04e404
DTITLE=Force MD's - Are You Really Real? [CDS)
DYEAR=1990
DGENRE=Funk
TTITLE0=Are You Really Real? 
TTITLE1=Are You Really Real? (12'' Version)
TTITLE2=Are You Really Real? [CD Version)
TTITLE3=Are You Really Real?  (Instrumental Version)
EXTD=
EXTT0=
EXTT1=
EXTT2=
EXTT3=
PLAYORDER=
